<svg xmlns="http://www.w3.org/2000/svg" xmlns:xlink="http://www.w3.org/1999/xlink" width="500" zoomAndPan="magnify" viewBox="0 0 375 374.999991" height="500" preserveAspectRatio="xMidYMid meet" version="1.0"><defs><g><g id="id1"/></g><clipPath id="id2"><path d="M 183 206 L 188 206 L 188 209.730469 L 183 209.730469 Z M 183 206 " clip-rule="nonzero"/></clipPath><clipPath id="id3"><path d="M 116.375 87.480469 L 258.875 87.480469 L 258.875 168 L 116.375 168 Z M 116.375 87.480469 " clip-rule="nonzero"/></clipPath><clipPath id="id4"><path d="M 136 142 L 239 142 L 239 209.730469 L 136 209.730469 Z M 136 142 " clip-rule="nonzero"/></clipPath></defs><g clip-path="url(#id2)"><path fill="rgb(0%, 0%, 0%)" d="M 183.164062 206.402344 C 184.792969 206.5625 185.382812 209.417969 187.585938 208.109375 C 186.933594 209.671875 186.109375 210.308594 184.847656 208.628906 C 184.285156 207.882812 183.722656 207.140625 183.160156 206.402344 Z M 183.164062 206.402344 " fill-opacity="1" fill-rule="evenodd"/></g><path fill="rgb(0%, 0%, 0%)" d="M 127.6875 115.238281 C 127.660156 115.847656 127.246094 115.976562 126.75 115.96875 C 126.378906 115.960938 125.972656 115.921875 125.898438 115.460938 C 125.808594 114.894531 126.191406 114.59375 126.664062 114.507812 C 127.199219 114.40625 127.5 114.777344 127.6875 115.238281 Z M 127.6875 115.238281 " fill-opacity="1" fill-rule="evenodd"/><path fill="rgb(0%, 0%, 0%)" d="M 124.230469 116.398438 C 123.796875 116.417969 123.527344 116.261719 123.628906 115.945312 C 123.6875 115.761719 124.015625 115.617188 124.25 115.546875 C 124.351562 115.515625 124.523438 115.71875 124.664062 115.8125 C 124.507812 116.027344 124.347656 116.238281 124.230469 116.398438 Z M 124.230469 116.398438 " fill-opacity="1" fill-rule="evenodd"/><path fill="rgb(99.609375%, 99.609375%, 99.609375%)" d="M 186.308594 189.867188 C 187.695312 191.523438 188.992188 192.949219 190.109375 194.496094 C 190.40625 194.90625 186.519531 198.835938 185.996094 198.75 C 185.492188 198.667969 182.167969 194.671875 182.410156 194.371094 C 183.617188 192.882812 184.910156 191.464844 186.308594 189.867188 Z M 186.308594 189.867188 " fill-opacity="1" fill-rule="evenodd"/><g clip-path="url(#id3)"><path fill="rgb(0%, 0%, 0%)" d="M 121.257812 117.132812 C 121.332031 117.210938 121.40625 117.292969 121.476562 117.371094 C 121.480469 117.371094 121.484375 117.371094 121.484375 117.371094 C 121.4375 117.265625 121.355469 117.1875 121.257812 117.132812 Z M 116.375 115.394531 C 116.453125 115.351562 116.535156 115.304688 116.621094 115.261719 C 117.460938 114.488281 118.433594 114.039062 119.53125 113.890625 C 120.527344 113.457031 121.636719 112.988281 122.761719 112.523438 C 122.816406 112.496094 122.871094 112.472656 122.929688 112.453125 C 126.976562 110.78125 131.1875 109.167969 131.1875 109.167969 L 131.277344 109.238281 C 149.324219 102.160156 167.378906 95.105469 185.414062 88.015625 C 187.070312 87.363281 188.539062 87.355469 190.195312 88.019531 C 197.617188 90.996094 205.082031 93.863281 212.523438 96.792969 C 227.398438 102.660156 242.269531 108.542969 257.140625 114.417969 C 257.796875 114.664062 258.578125 114.703125 258.875 115.507812 C 258.097656 115.894531 257.339844 116.332031 256.539062 116.660156 C 246.847656 120.636719 249.050781 117.921875 248.710938 128.097656 C 248.644531 130.035156 249.070312 131.15625 251.078125 132.078125 C 256.003906 134.34375 256.859375 140.078125 253.121094 143.902344 C 252.964844 144.058594 252.808594 144.214844 252.652344 144.371094 C 250.050781 145.347656 250.914062 147.417969 251.394531 149.082031 C 252.957031 154.476562 253.328125 159.980469 253.402344 165.550781 C 253.425781 167.339844 252.683594 167.773438 251.171875 167.765625 C 248.53125 167.757812 245.890625 167.710938 243.253906 167.78125 C 241.410156 167.832031 240.839844 167.007812 241.042969 165.28125 C 241.710938 159.679688 241.710938 153.988281 243.355469 148.523438 C 243.921875 146.632812 243.691406 145.359375 241.960938 143.882812 C 238.023438 140.523438 239.183594 134.507812 243.894531 132.328125 C 244.570312 132.015625 245.386719 131.957031 245.863281 131.28125 C 245.855469 131.28125 245.847656 131.28125 245.84375 131.285156 C 245.882812 128.652344 245.789062 126.007812 246.003906 123.394531 C 246.210938 120.839844 245.179688 121.03125 243.375 121.765625 C 237.964844 123.972656 232.503906 126.054688 227.070312 128.210938 C 226.285156 128.519531 225.304688 128.582031 224.960938 129.585938 C 227.117188 133.027344 228.113281 136.882812 228.960938 140.796875 C 229.261719 142.179688 228.851562 143.167969 227.742188 144.101562 C 216.757812 153.3125 204.320312 158.847656 189.808594 158.953125 C 177.097656 159.046875 165.546875 154.972656 155.109375 148.03125 C 144.96875 141.285156 144.945312 144.363281 149.945312 131.199219 C 150.628906 129.398438 150.421875 128.855469 148.632812 128.167969 C 140.535156 125.0625 132.507812 121.773438 124.449219 118.550781 C 123.34375 118.472656 122.339844 118.136719 121.496094 117.394531 C 120.371094 117.339844 119.398438 116.878906 118.480469 116.28125 C 117.96875 116.144531 117.457031 116.007812 116.945312 115.875 C 116.757812 115.75 116.566406 115.625 116.378906 115.5 C 116.410156 115.460938 116.445312 115.429688 116.480469 115.394531 Z M 116.375 115.394531 " fill-opacity="1" fill-rule="evenodd"/></g><path fill="rgb(95.289612%, 61.178589%, 7.058716%)" d="M 222.824219 175.511719 C 219.277344 161.074219 198.761719 161.019531 195.199219 175.511719 L 196.71875 175.511719 C 196.722656 175.519531 196.722656 175.53125 196.722656 175.542969 L 200.980469 175.542969 C 200.980469 175.542969 200.980469 175.53125 200.984375 175.511719 Z M 222.824219 175.511719 " fill-opacity="1" fill-rule="evenodd"/><path fill="rgb(95.289612%, 61.178589%, 7.058716%)" d="M 175.976562 175.511719 C 172.433594 161.074219 151.914062 161.019531 148.355469 175.511719 L 149.875 175.511719 C 149.875 175.519531 149.875 175.53125 149.878906 175.542969 L 154.136719 175.542969 C 154.136719 175.542969 154.136719 175.53125 154.140625 175.511719 Z M 175.976562 175.511719 " fill-opacity="1" fill-rule="evenodd"/><g clip-path="url(#id4)"><path fill="rgb(0%, 0%, 0%)" d="M 168.070312 182.910156 C 169.234375 181.582031 170.453125 182.066406 171.679688 181.976562 C 173.085938 181.867188 174.503906 181.949219 175.9375 181.949219 C 175.222656 187.496094 170.675781 191.894531 164.9375 192.769531 C 159.167969 194.589844 151.132812 190.589844 148.917969 183.699219 C 148.714844 183.078125 148.1875 181.945312 149.496094 182.007812 C 151.710938 182.113281 154.003906 181.304688 156.152344 182.441406 C 160.15625 187.148438 164.125 187.394531 168.070312 182.910156 Z M 148.355469 175.511719 C 151.914062 161.019531 172.433594 161.074219 175.980469 175.511719 L 154.140625 175.511719 C 154.140625 175.53125 154.136719 175.542969 154.136719 175.542969 L 149.878906 175.542969 C 149.878906 175.53125 149.878906 175.523438 149.878906 175.511719 Z M 177.242188 200.609375 C 179.023438 202.917969 181.09375 205.003906 183.042969 207.183594 C 183.839844 207.601562 184.292969 208.382812 184.871094 209.011719 C 185.871094 210.101562 186.703125 209.714844 187.585938 208.941406 C 190.027344 206.285156 192.574219 203.714844 194.867188 200.9375 C 196.304688 199.199219 197.5625 198.796875 199.828125 199.523438 C 210.695312 203.015625 222.648438 198.683594 228.621094 189.34375 C 234.542969 180.078125 233.390625 169.054688 225.480469 160.253906 C 224.367188 159.015625 224.1875 158.457031 225.773438 157.476562 C 229.515625 155.171875 233.046875 152.535156 236.382812 149.660156 C 238.679688 147.679688 239.050781 145.605469 237.539062 143.847656 C 236.070312 142.136719 233.71875 142.101562 231.515625 143.773438 C 229.027344 145.667969 226.625 147.683594 224.046875 149.449219 C 210.558594 158.714844 196.03125 164.601562 179.253906 162.457031 C 167.304688 160.933594 156.839844 156.027344 147.910156 147.910156 L 147.933594 147.933594 C 146.152344 147.015625 145.023438 145.371094 143.589844 144.0625 C 141.542969 142.1875 139.269531 142.007812 137.628906 143.621094 C 135.910156 145.316406 136.050781 147.304688 138.144531 149.527344 C 140.492188 152.019531 142.980469 154.402344 145.828125 156.28125 C 148.144531 157.8125 148.6875 158.671875 146.382812 161.035156 C 140.722656 166.832031 139.035156 174.105469 140.847656 181.894531 C 144.140625 196.023438 158.894531 203.988281 173.046875 199.429688 C 174.941406 198.824219 176.023438 199.03125 177.242188 200.609375 Z M 214.914062 182.910156 C 216.082031 181.582031 217.296875 182.066406 218.527344 181.976562 C 219.929688 181.867188 221.347656 181.949219 222.785156 181.949219 C 222.070312 187.496094 217.523438 191.894531 211.78125 192.769531 C 206.015625 194.589844 197.976562 190.589844 195.761719 183.699219 C 195.5625 183.078125 195.035156 181.945312 196.339844 182.007812 C 198.558594 182.113281 200.847656 181.304688 202.996094 182.441406 C 207.003906 187.148438 210.972656 187.394531 214.914062 182.910156 Z M 182.414062 194.371094 C 183.621094 192.882812 184.910156 191.46875 186.3125 189.867188 C 187.695312 191.523438 188.992188 192.949219 190.109375 194.496094 C 190.40625 194.90625 186.519531 198.835938 185.996094 198.75 C 185.496094 198.667969 182.167969 194.671875 182.414062 194.371094 Z M 195.203125 175.511719 C 198.761719 161.019531 219.28125 161.074219 222.824219 175.511719 L 200.988281 175.511719 C 200.984375 175.53125 200.984375 175.542969 200.984375 175.542969 L 196.726562 175.542969 C 196.726562 175.53125 196.722656 175.523438 196.722656 175.511719 Z M 195.203125 175.511719 " fill-opacity="1" fill-rule="evenodd"/></g><g fill="rgb(0%, 0%, 0%)" fill-opacity="1"><g transform="translate(85.42369, 236.004652)"><g><path d="M 7.609375 -14.03125 C 7.097656 -14.03125 6.675781 -13.890625 6.34375 -13.609375 C 6.007812 -13.335938 5.84375 -12.941406 5.84375 -12.421875 C 5.84375 -11.910156 5.992188 -11.492188 6.296875 -11.171875 C 6.609375 -10.859375 7.007812 -10.613281 7.5 -10.4375 C 8 -10.269531 8.550781 -10.109375 9.15625 -9.953125 C 9.769531 -9.804688 10.375 -9.625 10.96875 -9.40625 C 11.570312 -9.1875 12.117188 -8.910156 12.609375 -8.578125 C 13.109375 -8.253906 13.507812 -7.796875 13.8125 -7.203125 C 14.125 -6.617188 14.28125 -5.910156 14.28125 -5.078125 C 14.28125 -3.640625 13.691406 -2.40625 12.515625 -1.375 C 11.335938 -0.34375 9.785156 0.171875 7.859375 0.171875 C 5.941406 0.171875 4.394531 -0.289062 3.21875 -1.21875 C 2.039062 -2.144531 1.453125 -3.457031 1.453125 -5.15625 L 5.890625 -5.15625 C 6.003906 -3.789062 6.703125 -3.109375 7.984375 -3.109375 C 8.578125 -3.109375 9.046875 -3.265625 9.390625 -3.578125 C 9.734375 -3.898438 9.90625 -4.300781 9.90625 -4.78125 C 9.90625 -5.269531 9.75 -5.671875 9.4375 -5.984375 C 9.132812 -6.296875 8.734375 -6.539062 8.234375 -6.71875 C 7.742188 -6.894531 7.191406 -7.054688 6.578125 -7.203125 C 5.972656 -7.359375 5.367188 -7.550781 4.765625 -7.78125 C 4.171875 -8.007812 3.625 -8.28125 3.125 -8.59375 C 2.632812 -8.914062 2.234375 -9.367188 1.921875 -9.953125 C 1.609375 -10.546875 1.453125 -11.25 1.453125 -12.0625 C 1.453125 -13.65625 2.046875 -14.929688 3.234375 -15.890625 C 4.421875 -16.847656 5.929688 -17.328125 7.765625 -17.328125 C 9.609375 -17.328125 11.097656 -16.90625 12.234375 -16.0625 C 13.367188 -15.226562 13.960938 -13.910156 14.015625 -12.109375 L 9.484375 -12.109375 C 9.421875 -12.734375 9.222656 -13.207031 8.890625 -13.53125 C 8.554688 -13.863281 8.128906 -14.03125 7.609375 -14.03125 Z M 7.609375 -14.03125 "/></g></g></g><g fill="rgb(0%, 0%, 0%)" fill-opacity="1"><g transform="translate(100.555635, 236.004652)"><g><path d="M 7.59375 -3.53125 L 9.078125 -3.53125 L 9.078125 0 L 6.953125 0 C 5.429688 0 4.253906 -0.332031 3.421875 -1 C 2.585938 -1.675781 2.171875 -2.832031 2.171875 -4.46875 L 2.171875 -10.125 L 0.90625 -10.125 L 0.90625 -13.578125 L 2.171875 -13.578125 L 2.171875 -16.890625 L 6.328125 -16.890625 L 6.328125 -13.578125 L 9.046875 -13.578125 L 9.046875 -10.125 L 6.328125 -10.125 L 6.328125 -4.46875 C 6.328125 -3.84375 6.75 -3.53125 7.59375 -3.53125 Z M 7.59375 -3.53125 "/></g></g></g><g fill="rgb(0%, 0%, 0%)" fill-opacity="1"><g transform="translate(110.043446, 236.004652)"><g><path d="M 11.046875 -13.578125 L 15.203125 -13.578125 L 15.203125 0 L 11.046875 0 L 11.046875 -2 C 10.179688 -0.570312 8.8125 0.140625 6.9375 0.140625 C 5.375 0.140625 4.109375 -0.375 3.140625 -1.40625 C 2.179688 -2.445312 1.703125 -3.859375 1.703125 -5.640625 L 1.703125 -13.578125 L 5.84375 -13.578125 L 5.84375 -6.203125 C 5.84375 -5.328125 6.070312 -4.648438 6.53125 -4.171875 C 6.988281 -3.691406 7.625 -3.453125 8.4375 -3.453125 C 9.25 -3.453125 9.882812 -3.691406 10.34375 -4.171875 C 10.8125 -4.648438 11.046875 -5.328125 11.046875 -6.203125 Z M 11.046875 -13.578125 "/></g></g></g><g fill="rgb(0%, 0%, 0%)" fill-opacity="1"><g transform="translate(126.464787, 236.004652)"><g><path d="M 10.09375 -4.3125 C 10.695312 -4.894531 11 -5.71875 11 -6.78125 C 11 -7.851562 10.695312 -8.675781 10.09375 -9.25 C 9.5 -9.832031 8.8125 -10.125 8.03125 -10.125 C 7.25 -10.125 6.554688 -9.832031 5.953125 -9.25 C 5.359375 -8.664062 5.0625 -7.835938 5.0625 -6.765625 C 5.0625 -5.691406 5.359375 -4.867188 5.953125 -4.296875 C 6.554688 -3.722656 7.25 -3.4375 8.03125 -3.4375 C 8.8125 -3.4375 9.5 -3.726562 10.09375 -4.3125 Z M 2.625 -1.765625 C 1.425781 -3.066406 0.828125 -4.726562 0.828125 -6.75 C 0.828125 -8.78125 1.425781 -10.445312 2.625 -11.75 C 3.820312 -13.0625 5.285156 -13.71875 7.015625 -13.71875 C 8.742188 -13.71875 10.070312 -13.078125 11 -11.796875 L 11 -18 L 15.15625 -18 L 15.15625 0 L 11 0 L 11 -1.96875 C 9.988281 -0.539062 8.640625 0.171875 6.953125 0.171875 C 5.265625 0.171875 3.820312 -0.472656 2.625 -1.765625 Z M 2.625 -1.765625 "/></g></g></g><g fill="rgb(0%, 0%, 0%)" fill-opacity="1"><g transform="translate(142.837464, 236.004652)"><g><path d="M 7.59375 0.171875 C 5.613281 0.171875 3.988281 -0.460938 2.71875 -1.734375 C 1.457031 -3.015625 0.828125 -4.707031 0.828125 -6.8125 C 0.828125 -8.914062 1.453125 -10.59375 2.703125 -11.84375 C 3.960938 -13.09375 5.585938 -13.71875 7.578125 -13.71875 C 9.578125 -13.71875 11.234375 -13.097656 12.546875 -11.859375 C 13.867188 -10.628906 14.53125 -8.921875 14.53125 -6.734375 C 14.53125 -6.265625 14.492188 -5.828125 14.421875 -5.421875 L 5.078125 -5.421875 C 5.160156 -4.828125 5.425781 -4.335938 5.875 -3.953125 C 6.332031 -3.566406 6.828125 -3.375 7.359375 -3.375 C 7.890625 -3.375 8.28125 -3.425781 8.53125 -3.53125 C 8.789062 -3.644531 8.984375 -3.753906 9.109375 -3.859375 C 9.234375 -3.960938 9.390625 -4.132812 9.578125 -4.375 L 14.09375 -4.375 C 13.695312 -3.007812 12.914062 -1.910156 11.75 -1.078125 C 10.582031 -0.242188 9.195312 0.171875 7.59375 0.171875 Z M 10.1875 -8.03125 C 10.125 -8.664062 9.847656 -9.179688 9.359375 -9.578125 C 8.878906 -9.972656 8.304688 -10.171875 7.640625 -10.171875 C 6.972656 -10.171875 6.410156 -9.972656 5.953125 -9.578125 C 5.503906 -9.179688 5.222656 -8.664062 5.109375 -8.03125 Z M 10.1875 -8.03125 "/></g></g></g><g fill="rgb(0%, 0%, 0%)" fill-opacity="1"><g transform="translate(157.604479, 236.004652)"><g><path d="M 5.984375 -13.578125 L 5.984375 -11.578125 C 6.847656 -13.003906 8.21875 -13.71875 10.09375 -13.71875 C 11.65625 -13.71875 12.914062 -13.195312 13.875 -12.15625 C 14.84375 -11.125 15.328125 -9.71875 15.328125 -7.9375 L 15.328125 0 L 11.1875 0 L 11.1875 -7.375 C 11.1875 -8.25 10.953125 -8.925781 10.484375 -9.40625 C 10.023438 -9.882812 9.390625 -10.125 8.578125 -10.125 C 7.773438 -10.125 7.140625 -9.882812 6.671875 -9.40625 C 6.210938 -8.925781 5.984375 -8.25 5.984375 -7.375 L 5.984375 0 L 1.828125 0 L 1.828125 -13.578125 Z M 5.984375 -13.578125 "/></g></g></g><g fill="rgb(0%, 0%, 0%)" fill-opacity="1"><g transform="translate(174.025817, 236.004652)"><g><path d="M 7.59375 -3.53125 L 9.078125 -3.53125 L 9.078125 0 L 6.953125 0 C 5.429688 0 4.253906 -0.332031 3.421875 -1 C 2.585938 -1.675781 2.171875 -2.832031 2.171875 -4.46875 L 2.171875 -10.125 L 0.90625 -10.125 L 0.90625 -13.578125 L 2.171875 -13.578125 L 2.171875 -16.890625 L 6.328125 -16.890625 L 6.328125 -13.578125 L 9.046875 -13.578125 L 9.046875 -10.125 L 6.328125 -10.125 L 6.328125 -4.46875 C 6.328125 -3.84375 6.75 -3.53125 7.59375 -3.53125 Z M 7.59375 -3.53125 "/></g></g></g><g fill="rgb(0%, 0%, 0%)" fill-opacity="1"><g transform="translate(183.513626, 236.004652)"><g/></g></g><g fill="rgb(95.289612%, 61.178589%, 7.058716%)" fill-opacity="1"><g transform="translate(190.20103, 236.004652)"><g><path d="M 7.609375 -14.03125 C 7.097656 -14.03125 6.675781 -13.890625 6.34375 -13.609375 C 6.007812 -13.335938 5.84375 -12.941406 5.84375 -12.421875 C 5.84375 -11.910156 5.992188 -11.492188 6.296875 -11.171875 C 6.609375 -10.859375 7.007812 -10.613281 7.5 -10.4375 C 8 -10.269531 8.550781 -10.109375 9.15625 -9.953125 C 9.769531 -9.804688 10.375 -9.625 10.96875 -9.40625 C 11.570312 -9.1875 12.117188 -8.910156 12.609375 -8.578125 C 13.109375 -8.253906 13.507812 -7.796875 13.8125 -7.203125 C 14.125 -6.617188 14.28125 -5.910156 14.28125 -5.078125 C 14.28125 -3.640625 13.691406 -2.40625 12.515625 -1.375 C 11.335938 -0.34375 9.785156 0.171875 7.859375 0.171875 C 5.941406 0.171875 4.394531 -0.289062 3.21875 -1.21875 C 2.039062 -2.144531 1.453125 -3.457031 1.453125 -5.15625 L 5.890625 -5.15625 C 6.003906 -3.789062 6.703125 -3.109375 7.984375 -3.109375 C 8.578125 -3.109375 9.046875 -3.265625 9.390625 -3.578125 C 9.734375 -3.898438 9.90625 -4.300781 9.90625 -4.78125 C 9.90625 -5.269531 9.75 -5.671875 9.4375 -5.984375 C 9.132812 -6.296875 8.734375 -6.539062 8.234375 -6.71875 C 7.742188 -6.894531 7.191406 -7.054688 6.578125 -7.203125 C 5.972656 -7.359375 5.367188 -7.550781 4.765625 -7.78125 C 4.171875 -8.007812 3.625 -8.28125 3.125 -8.59375 C 2.632812 -8.914062 2.234375 -9.367188 1.921875 -9.953125 C 1.609375 -10.546875 1.453125 -11.25 1.453125 -12.0625 C 1.453125 -13.65625 2.046875 -14.929688 3.234375 -15.890625 C 4.421875 -16.847656 5.929688 -17.328125 7.765625 -17.328125 C 9.609375 -17.328125 11.097656 -16.90625 12.234375 -16.0625 C 13.367188 -15.226562 13.960938 -13.910156 14.015625 -12.109375 L 9.484375 -12.109375 C 9.421875 -12.734375 9.222656 -13.207031 8.890625 -13.53125 C 8.554688 -13.863281 8.128906 -14.03125 7.609375 -14.03125 Z M 7.609375 -14.03125 "/></g></g></g><g fill="rgb(95.289612%, 61.178589%, 7.058716%)" fill-opacity="1"><g transform="translate(205.332975, 236.004652)"><g><path d="M 11.046875 -13.578125 L 15.203125 -13.578125 L 15.203125 0 L 11.046875 0 L 11.046875 -2 C 10.179688 -0.570312 8.8125 0.140625 6.9375 0.140625 C 5.375 0.140625 4.109375 -0.375 3.140625 -1.40625 C 2.179688 -2.445312 1.703125 -3.859375 1.703125 -5.640625 L 1.703125 -13.578125 L 5.84375 -13.578125 L 5.84375 -6.203125 C 5.84375 -5.328125 6.070312 -4.648438 6.53125 -4.171875 C 6.988281 -3.691406 7.625 -3.453125 8.4375 -3.453125 C 9.25 -3.453125 9.882812 -3.691406 10.34375 -4.171875 C 10.8125 -4.648438 11.046875 -5.328125 11.046875 -6.203125 Z M 11.046875 -13.578125 "/></g></g></g><g fill="rgb(95.289612%, 61.178589%, 7.058716%)" fill-opacity="1"><g transform="translate(221.754315, 236.004652)"><g><path d="M 11.015625 -4.296875 C 11.617188 -4.867188 11.921875 -5.691406 11.921875 -6.765625 C 11.921875 -7.835938 11.617188 -8.664062 11.015625 -9.25 C 10.421875 -9.832031 9.734375 -10.125 8.953125 -10.125 C 8.171875 -10.125 7.476562 -9.832031 6.875 -9.25 C 6.28125 -8.675781 5.984375 -7.851562 5.984375 -6.78125 C 5.984375 -5.71875 6.28125 -4.894531 6.875 -4.3125 C 7.476562 -3.726562 8.171875 -3.4375 8.953125 -3.4375 C 9.734375 -3.4375 10.421875 -3.722656 11.015625 -4.296875 Z M 5.984375 -11.796875 C 6.910156 -13.078125 8.234375 -13.71875 9.953125 -13.71875 C 11.679688 -13.71875 13.144531 -13.0625 14.34375 -11.75 C 15.550781 -10.445312 16.15625 -8.78125 16.15625 -6.75 C 16.15625 -4.726562 15.550781 -3.066406 14.34375 -1.765625 C 13.144531 -0.472656 11.691406 0.171875 9.984375 0.171875 C 8.285156 0.171875 6.953125 -0.539062 5.984375 -1.96875 L 5.984375 6.46875 L 1.828125 6.46875 L 1.828125 -13.578125 L 5.984375 -13.578125 Z M 5.984375 -11.796875 "/></g></g></g><g fill="rgb(95.289612%, 61.178589%, 7.058716%)" fill-opacity="1"><g transform="translate(238.126995, 236.004652)"><g><path d="M 11.015625 -4.296875 C 11.617188 -4.867188 11.921875 -5.691406 11.921875 -6.765625 C 11.921875 -7.835938 11.617188 -8.664062 11.015625 -9.25 C 10.421875 -9.832031 9.734375 -10.125 8.953125 -10.125 C 8.171875 -10.125 7.476562 -9.832031 6.875 -9.25 C 6.28125 -8.675781 5.984375 -7.851562 5.984375 -6.78125 C 5.984375 -5.71875 6.28125 -4.894531 6.875 -4.3125 C 7.476562 -3.726562 8.171875 -3.4375 8.953125 -3.4375 C 9.734375 -3.4375 10.421875 -3.722656 11.015625 -4.296875 Z M 5.984375 -11.796875 C 6.910156 -13.078125 8.234375 -13.71875 9.953125 -13.71875 C 11.679688 -13.71875 13.144531 -13.0625 14.34375 -11.75 C 15.550781 -10.445312 16.15625 -8.78125 16.15625 -6.75 C 16.15625 -4.726562 15.550781 -3.066406 14.34375 -1.765625 C 13.144531 -0.472656 11.691406 0.171875 9.984375 0.171875 C 8.285156 0.171875 6.953125 -0.539062 5.984375 -1.96875 L 5.984375 6.46875 L 1.828125 6.46875 L 1.828125 -13.578125 L 5.984375 -13.578125 Z M 5.984375 -11.796875 "/></g></g></g><g fill="rgb(95.289612%, 61.178589%, 7.058716%)" fill-opacity="1"><g transform="translate(254.499673, 236.004652)"><g><path d="M 9.96875 -4.25 C 10.519531 -4.84375 10.796875 -5.6875 10.796875 -6.78125 C 10.796875 -7.882812 10.507812 -8.722656 9.9375 -9.296875 C 9.375 -9.878906 8.703125 -10.171875 7.921875 -10.171875 C 7.148438 -10.171875 6.484375 -9.878906 5.921875 -9.296875 C 5.359375 -8.722656 5.078125 -7.882812 5.078125 -6.78125 C 5.078125 -5.6875 5.363281 -4.84375 5.9375 -4.25 C 6.519531 -3.664062 7.195312 -3.375 7.96875 -3.375 C 8.75 -3.375 9.414062 -3.664062 9.96875 -4.25 Z M 2.90625 -1.75 C 1.53125 -3.03125 0.84375 -4.71875 0.84375 -6.8125 C 0.84375 -8.90625 1.523438 -10.578125 2.890625 -11.828125 C 4.253906 -13.085938 5.941406 -13.71875 7.953125 -13.71875 C 9.960938 -13.71875 11.644531 -13.085938 13 -11.828125 C 14.351562 -10.578125 15.03125 -8.90625 15.03125 -6.8125 C 15.03125 -4.71875 14.359375 -3.03125 13.015625 -1.75 C 11.671875 -0.46875 9.992188 0.171875 7.984375 0.171875 C 5.972656 0.171875 4.28125 -0.46875 2.90625 -1.75 Z M 2.90625 -1.75 "/></g></g></g><g fill="rgb(95.289612%, 61.178589%, 7.058716%)" fill-opacity="1"><g transform="translate(269.777586, 236.004652)"><g><path d="M 5.984375 -13.578125 L 5.984375 -11.046875 C 6.953125 -12.828125 8.25 -13.71875 9.875 -13.71875 L 9.875 -9.484375 L 8.859375 -9.484375 C 7.898438 -9.484375 7.179688 -9.253906 6.703125 -8.796875 C 6.222656 -8.347656 5.984375 -7.554688 5.984375 -6.421875 L 5.984375 0 L 1.828125 0 L 1.828125 -13.578125 Z M 5.984375 -13.578125 "/></g></g></g><g fill="rgb(95.289612%, 61.178589%, 7.058716%)" fill-opacity="1"><g transform="translate(279.484344, 236.004652)"><g><path d="M 7.59375 -3.53125 L 9.078125 -3.53125 L 9.078125 0 L 6.953125 0 C 5.429688 0 4.253906 -0.332031 3.421875 -1 C 2.585938 -1.675781 2.171875 -2.832031 2.171875 -4.46875 L 2.171875 -10.125 L 0.90625 -10.125 L 0.90625 -13.578125 L 2.171875 -13.578125 L 2.171875 -16.890625 L 6.328125 -16.890625 L 6.328125 -13.578125 L 9.046875 -13.578125 L 9.046875 -10.125 L 6.328125 -10.125 L 6.328125 -4.46875 C 6.328125 -3.84375 6.75 -3.53125 7.59375 -3.53125 Z M 7.59375 -3.53125 "/></g></g></g></svg>