<svg xmlns="http://www.w3.org/2000/svg" zoomAndPan="magnify" preserveAspectRatio="xMidYMid meet" version="1.0"
     viewBox="116.38 126.46 142.5 122.25">
  <defs>
    <clipPath id="id1">
      <path d="M 183 245 L 188 245 L 188 248.714844 L 183 248.714844 Z M 183 245 " clip-rule="nonzero"/>
    </clipPath>
    <clipPath id="id2">
      <path d="M 116.375 126.464844 L 258.875 126.464844 L 258.875 207 L 116.375 207 Z M 116.375 126.464844 "
            clip-rule="nonzero"/>
    </clipPath>
    <clipPath id="id3">
      <path d="M 136 181 L 239 181 L 239 248.714844 L 136 248.714844 Z M 136 181 " clip-rule="nonzero"/>
    </clipPath>
  </defs>
  <g clip-path="url(#id1)">
    <path fill="rgb(0%, 0%, 0%)"
          d="M 183.164062 245.386719 C 184.792969 245.546875 185.382812 248.402344 187.585938 247.097656 C 186.933594 248.65625 186.109375 249.292969 184.847656 247.613281 C 184.285156 246.871094 183.722656 246.128906 183.160156 245.386719 Z M 183.164062 245.386719 "
          fill-opacity="1" fill-rule="evenodd"/>
  </g>
  <path fill="rgb(0%, 0%, 0%)"
        d="M 127.6875 154.222656 C 127.660156 154.835938 127.246094 154.964844 126.75 154.953125 C 126.378906 154.945312 125.972656 154.90625 125.898438 154.445312 C 125.808594 153.882812 126.191406 153.578125 126.664062 153.492188 C 127.199219 153.394531 127.5 153.765625 127.6875 154.222656 Z M 127.6875 154.222656 "
        fill-opacity="1" fill-rule="evenodd"/>
  <path fill="rgb(0%, 0%, 0%)"
        d="M 124.230469 155.382812 C 123.796875 155.40625 123.527344 155.25 123.628906 154.933594 C 123.6875 154.746094 124.015625 154.601562 124.25 154.53125 C 124.351562 154.503906 124.523438 154.703125 124.664062 154.800781 C 124.507812 155.011719 124.347656 155.226562 124.230469 155.382812 Z M 124.230469 155.382812 "
        fill-opacity="1" fill-rule="evenodd"/>
  <path fill="rgb(99.609375%, 99.609375%, 99.609375%)"
        d="M 186.308594 228.851562 C 187.695312 230.511719 188.992188 231.933594 190.109375 233.484375 C 190.40625 233.894531 186.519531 237.820312 185.996094 237.734375 C 185.492188 237.652344 182.167969 233.65625 182.410156 233.355469 C 183.617188 231.871094 184.910156 230.453125 186.308594 228.851562 Z M 186.308594 228.851562 "
        fill-opacity="1" fill-rule="evenodd"/>
  <g clip-path="url(#id2)">
    <path fill="rgb(0%, 0%, 0%)"
          d="M 121.257812 156.117188 C 121.332031 156.199219 121.40625 156.277344 121.476562 156.359375 C 121.480469 156.359375 121.484375 156.359375 121.484375 156.359375 C 121.4375 156.25 121.355469 156.175781 121.257812 156.117188 Z M 116.375 154.378906 C 116.453125 154.339844 116.535156 154.292969 116.621094 154.246094 C 117.460938 153.476562 118.433594 153.027344 119.53125 152.878906 C 120.527344 152.441406 121.636719 151.972656 122.761719 151.507812 C 122.816406 151.484375 122.871094 151.460938 122.929688 151.4375 C 126.976562 149.769531 131.1875 148.152344 131.1875 148.152344 L 131.277344 148.222656 C 149.324219 141.148438 167.378906 134.09375 185.414062 127 C 187.070312 126.351562 188.539062 126.34375 190.195312 127.007812 C 197.617188 129.980469 205.082031 132.847656 212.523438 135.78125 C 227.398438 141.648438 242.269531 147.527344 257.140625 153.402344 C 257.796875 153.652344 258.578125 153.6875 258.875 154.496094 C 258.097656 154.878906 257.339844 155.316406 256.539062 155.644531 C 246.847656 159.625 249.050781 156.90625 248.710938 167.082031 C 248.644531 169.023438 249.070312 170.140625 251.078125 171.0625 C 256.003906 173.328125 256.859375 179.0625 253.121094 182.886719 C 252.964844 183.042969 252.808594 183.199219 252.652344 183.355469 C 250.050781 184.335938 250.914062 186.402344 251.394531 188.066406 C 252.957031 193.464844 253.328125 198.964844 253.402344 204.539062 C 253.425781 206.324219 252.683594 206.757812 251.171875 206.753906 C 248.53125 206.746094 245.890625 206.699219 243.253906 206.769531 C 241.410156 206.820312 240.839844 205.996094 241.042969 204.265625 C 241.710938 198.664062 241.710938 192.972656 243.355469 187.511719 C 243.921875 185.617188 243.691406 184.34375 241.960938 182.867188 C 238.023438 179.511719 239.183594 173.496094 243.894531 171.3125 C 244.570312 171 245.386719 170.941406 245.863281 170.265625 C 245.855469 170.265625 245.847656 170.269531 245.84375 170.269531 C 245.882812 167.636719 245.789062 164.996094 246.003906 162.378906 C 246.210938 159.824219 245.179688 160.015625 243.375 160.75 C 237.964844 162.957031 232.503906 165.042969 227.070312 167.195312 C 226.285156 167.507812 225.304688 167.566406 224.960938 168.570312 C 227.117188 172.015625 228.113281 175.867188 228.960938 179.78125 C 229.261719 181.167969 228.851562 182.15625 227.742188 183.085938 C 216.757812 192.296875 204.320312 197.835938 189.808594 197.941406 C 177.097656 198.035156 165.546875 193.960938 155.109375 187.015625 C 144.96875 180.269531 144.945312 183.347656 149.945312 170.1875 C 150.628906 168.382812 150.421875 167.839844 148.632812 167.152344 C 140.535156 164.046875 132.507812 160.757812 124.449219 157.539062 C 123.34375 157.460938 122.339844 157.121094 121.496094 156.382812 C 120.371094 156.328125 119.398438 155.867188 118.480469 155.265625 C 117.96875 155.128906 117.457031 154.996094 116.945312 154.859375 C 116.757812 154.734375 116.566406 154.609375 116.378906 154.484375 C 116.410156 154.449219 116.445312 154.414062 116.480469 154.382812 L 116.378906 154.378906 Z M 116.375 154.378906 "
          fill-opacity="1" fill-rule="evenodd"/>
  </g>
  <path fill="rgb(95.289612%, 61.178589%, 7.058716%)"
        d="M 222.824219 214.496094 C 219.277344 200.058594 198.761719 200.007812 195.199219 214.496094 L 196.71875 214.496094 C 196.722656 214.507812 196.722656 214.515625 196.722656 214.527344 L 200.980469 214.527344 C 200.980469 214.527344 200.980469 214.515625 200.984375 214.496094 Z M 222.824219 214.496094 "
        fill-opacity="1" fill-rule="evenodd"/>
  <path fill="rgb(95.289612%, 61.178589%, 7.058716%)"
        d="M 175.976562 214.496094 C 172.433594 200.058594 151.914062 200.007812 148.355469 214.496094 L 149.875 214.496094 C 149.875 214.507812 149.875 214.515625 149.878906 214.527344 L 154.136719 214.527344 C 154.136719 214.527344 154.136719 214.515625 154.140625 214.496094 Z M 175.976562 214.496094 "
        fill-opacity="1" fill-rule="evenodd"/>
  <g clip-path="url(#id3)">
    <path fill="rgb(0%, 0%, 0%)"
          d="M 168.070312 221.894531 C 169.234375 220.570312 170.453125 221.054688 171.679688 220.960938 C 173.085938 220.855469 174.503906 220.9375 175.9375 220.9375 C 175.222656 226.480469 170.675781 230.878906 164.9375 231.753906 C 159.167969 233.574219 151.132812 229.578125 148.917969 222.6875 C 148.714844 222.066406 148.1875 220.933594 149.496094 220.996094 C 151.710938 221.101562 154.003906 220.289062 156.152344 221.425781 C 160.15625 226.136719 164.125 226.378906 168.070312 221.894531 Z M 148.355469 214.496094 C 151.914062 200.007812 172.433594 200.058594 175.980469 214.496094 L 154.140625 214.496094 C 154.140625 214.515625 154.136719 214.527344 154.136719 214.527344 L 149.878906 214.527344 C 149.878906 214.515625 149.878906 214.507812 149.878906 214.496094 Z M 177.242188 239.597656 C 179.023438 241.90625 181.09375 243.992188 183.042969 246.171875 C 183.839844 246.589844 184.292969 247.371094 184.871094 248 C 185.871094 249.085938 186.703125 248.703125 187.585938 247.925781 C 190.027344 245.269531 192.574219 242.703125 194.867188 239.925781 C 196.304688 238.183594 197.5625 237.78125 199.828125 238.507812 C 210.695312 242 222.648438 237.671875 228.621094 228.328125 C 234.542969 219.0625 233.390625 208.039062 225.480469 199.242188 C 224.367188 198 224.1875 197.441406 225.773438 196.464844 C 229.515625 194.15625 233.046875 191.523438 236.382812 188.644531 C 238.679688 186.664062 239.050781 184.589844 237.539062 182.832031 C 236.070312 181.121094 233.71875 181.085938 231.515625 182.761719 C 229.027344 184.652344 226.625 186.667969 224.046875 188.4375 C 210.558594 197.699219 196.03125 203.585938 179.253906 201.445312 C 167.304688 199.917969 156.839844 195.011719 147.910156 186.894531 L 147.933594 186.917969 C 146.152344 186.003906 145.023438 184.355469 143.589844 183.046875 C 141.542969 181.175781 139.269531 180.996094 137.628906 182.609375 C 135.910156 184.304688 136.050781 186.292969 138.144531 188.515625 C 140.492188 191.003906 142.980469 193.386719 145.828125 195.265625 C 148.144531 196.796875 148.6875 197.65625 146.382812 200.019531 C 140.722656 205.820312 139.035156 213.089844 140.847656 220.882812 C 144.140625 235.007812 158.894531 242.972656 173.046875 238.417969 C 174.941406 237.808594 176.023438 238.015625 177.242188 239.59375 Z M 214.914062 221.894531 C 216.082031 220.570312 217.296875 221.054688 218.527344 220.960938 C 219.929688 220.855469 221.347656 220.9375 222.785156 220.9375 C 222.070312 226.480469 217.523438 230.878906 211.78125 231.753906 C 206.015625 233.574219 197.976562 229.578125 195.761719 222.6875 C 195.5625 222.066406 195.035156 220.933594 196.339844 220.996094 C 198.558594 221.101562 200.847656 220.289062 202.996094 221.425781 C 207.003906 226.136719 210.972656 226.378906 214.914062 221.894531 Z M 182.414062 233.355469 C 183.621094 231.871094 184.910156 230.453125 186.3125 228.851562 C 187.695312 230.511719 188.992188 231.933594 190.109375 233.484375 C 190.40625 233.894531 186.519531 237.820312 185.996094 237.734375 C 185.496094 237.652344 182.167969 233.65625 182.414062 233.355469 Z M 195.203125 214.496094 C 198.761719 200.007812 219.28125 200.058594 222.824219 214.496094 L 200.988281 214.496094 C 200.984375 214.515625 200.984375 214.527344 200.984375 214.527344 L 196.726562 214.527344 C 196.726562 214.515625 196.722656 214.507812 196.722656 214.496094 Z M 195.203125 214.496094 "
          fill-opacity="1" fill-rule="evenodd"/>
  </g>
</svg>
