<?xml version="1.0" standalone="no"?>
<!DOCTYPE svg PUBLIC "-//W3C//DTD SVG 20010904//EN"
 "http://www.w3.org/TR/2001/REC-SVG-20010904/DTD/svg10.dtd">
<svg version="1.0" xmlns="http://www.w3.org/2000/svg"
 width="700.000000pt" height="700.000000pt" viewBox="0 0 700.000000 700.000000"
 preserveAspectRatio="xMidYMid meet">
<metadata>
Created by potrace 1.14, written by Peter Selinger 2001-2017
</metadata>
<g transform="translate(0.000000,700.000000) scale(0.100000,-0.100000)"
fill="#000000" stroke="none">
<path d="M3460 5355 c-19 -8 -272 -106 -562 -219 -290 -113 -530 -206 -533
-206 -4 0 -30 -11 -58 -24 -29 -13 -63 -27 -77 -31 -66 -20 -64 -30 13 -59 66
-26 383 -150 504 -198 29 -12 54 -28 55 -37 2 -9 -11 -54 -29 -100 -42 -108
-42 -133 0 -164 163 -123 415 -242 556 -263 20 -3 53 -9 73 -14 67 -14 266 -4
363 19 97 24 231 77 310 125 75 45 195 139 196 153 1 7 2 19 3 26 3 19 -34
138 -56 180 -11 22 -16 42 -13 45 16 16 371 150 378 143 4 -4 7 -48 5 -96 l-3
-89 -35 -19 c-83 -44 -103 -139 -42 -203 37 -39 44 -61 32 -105 -19 -68 -33
-189 -34 -284 l-1 -60 110 0 110 0 -1 100 c0 55 -9 138 -18 185 -10 47 -19 92
-21 100 -1 8 15 32 36 53 70 71 60 158 -25 216 -25 18 -47 35 -48 39 0 4 -2
43 -3 87 -3 87 9 119 47 130 78 23 166 75 128 75 -5 0 -150 56 -322 124 -381
151 -868 343 -923 363 -56 21 -75 23 -115 8z"/>
<path d="M2572 4320 c-35 -33 -28 -71 22 -126 24 -27 69 -67 99 -89 31 -22 59
-48 62 -58 4 -12 -6 -33 -32 -65 -78 -94 -105 -162 -105 -262 0 -209 123 -380
321 -445 55 -18 170 -24 226 -13 17 3 49 9 72 13 47 8 39 14 159 -118 34 -37
70 -67 79 -67 10 0 32 15 49 34 17 18 57 61 88 95 62 67 65 68 163 47 226 -50
448 68 533 284 55 138 28 292 -76 429 -23 30 -39 58 -36 62 2 4 40 33 84 64
110 77 170 135 170 167 0 38 -42 72 -80 64 -28 -5 -82 -39 -120 -75 -35 -34
-216 -145 -302 -186 -182 -86 -314 -115 -503 -110 -277 7 -519 112 -735 319
-63 60 -101 70 -138 36z m371 -754 c67 -55 121 -51 189 11 20 19 38 25 78 27
62 2 75 -5 67 -35 -26 -98 -154 -180 -269 -173 -55 3 -132 40 -169 81 -39 41
-73 112 -57 117 69 22 108 15 161 -28z m873 3 c57 -56 121 -55 179 1 27 26 41
31 88 33 81 4 85 -1 54 -65 -44 -90 -164 -154 -263 -142 -87 11 -178 77 -209
151 -20 48 -20 51 18 55 64 7 101 -2 133 -33z"/>
<path d="M2569 2918 c-1 -7 -1 -32 -1 -55 0 -47 -2 -50 -24 -28 -32 32 -115
10 -147 -39 -39 -59 -12 -167 48 -194 34 -16 54 -15 89 3 35 18 40 19 33 2 -4
-10 5 -13 32 -13 20 0 38 3 41 7 3 4 5 78 5 166 l0 158 -38 3 c-25 2 -37 -1
-38 -10z m-11 -170 c23 -49 -16 -99 -66 -83 -22 6 -40 42 -36 68 8 53 78 64
102 15z"/>
<path d="M1674 2901 c-38 -23 -44 -33 -51 -72 -7 -44 17 -71 78 -93 82 -29
101 -53 60 -76 -23 -12 -51 -3 -51 16 0 10 -13 14 -46 14 -42 0 -45 -1 -39
-22 19 -64 98 -93 173 -63 63 26 82 96 38 140 -14 13 -45 30 -71 36 -48 12
-70 35 -55 59 13 21 39 21 53 -1 8 -14 23 -19 53 -19 38 0 41 2 37 24 -12 63
-117 96 -179 57z"/>
<path d="M3632 2903 c-52 -26 -71 -103 -33 -137 14 -13 113 -56 128 -56 12 0
0 -49 -13 -54 -17 -7 -54 10 -54 24 0 6 -18 10 -40 10 -34 0 -40 -3 -40 -20 0
-30 42 -68 82 -75 86 -16 164 40 152 110 -6 36 -34 60 -91 76 -52 14 -71 34
-56 57 12 19 44 17 56 -4 12 -20 87 -19 87 2 0 23 -18 52 -41 64 -36 20 -102
21 -137 3z"/>
<path d="M1919 2903 c-1 -5 0 -18 1 -30 1 -15 -4 -23 -14 -23 -16 0 -17 -45
-1 -70 6 -8 10 -35 11 -60 1 -93 30 -130 98 -126 26 2 30 7 33 34 4 28 1 32
-20 32 -28 0 -33 13 -32 80 0 41 2 45 23 42 12 -2 23 0 23 5 9 62 9 63 -20 63
-26 0 -28 3 -26 30 2 29 1 30 -36 30 -22 0 -39 -3 -40 -7z"/>
<path d="M3290 2881 c0 -16 -5 -31 -12 -33 -17 -6 -18 -56 -1 -62 9 -4 13 -26
13 -76 0 -74 18 -108 58 -111 68 -5 67 -5 70 28 3 28 0 32 -24 35 -27 3 -28 5
-29 61 0 57 4 63 46 59 3 0 6 15 7 34 2 31 0 34 -26 34 -26 0 -28 3 -24 30 4
29 3 30 -37 30 -39 0 -41 -2 -41 -29z"/>
<path d="M5259 2898 c-1 -7 -1 -21 0 -30 1 -10 -4 -18 -12 -18 -18 0 -21 -59
-3 -66 9 -3 13 -28 14 -76 1 -80 15 -103 67 -112 44 -8 60 0 63 34 2 26 -1 30
-22 30 -27 0 -33 14 -31 80 1 40 3 45 22 42 14 -2 23 4 27 16 10 29 -3 52 -29
52 -19 0 -22 5 -20 30 2 29 1 30 -36 30 -24 0 -39 -5 -40 -12z"/>
<path d="M2088 2833 c-2 -10 -3 -53 -2 -97 1 -59 6 -84 21 -104 34 -45 100
-53 137 -16 15 14 16 14 16 -3 0 -15 7 -19 33 -17 17 1 35 2 39 3 4 0 8 57 7
126 l0 125 -40 0 -39 0 0 -83 c0 -87 -8 -107 -44 -107 -42 0 -50 15 -52 97 -1
43 -2 81 -3 86 -1 4 -16 7 -35 7 -24 0 -35 -5 -38 -17z"/>
<path d="M2750 2837 c-40 -20 -68 -71 -66 -120 4 -64 23 -94 71 -113 43 -16
87 -15 122 5 24 12 56 58 45 65 -8 4 -58 0 -108 -10 -21 -4 -34 -1 -43 10 -15
18 -17 18 69 21 100 3 100 3 100 25 0 92 -108 159 -190 117z m98 -79 c2 -11
-7 -15 -38 -14 -42 0 -54 17 -23 34 21 12 57 0 61 -20z"/>
<path d="M2979 2848 c-8 -17 -2 -241 6 -247 16 -12 54 -11 62 2 3 6 7 43 8 82
1 39 4 76 8 82 11 18 45 21 66 6 18 -12 21 -25 21 -97 l0 -83 38 2 37 1 3 80
c4 97 -2 119 -35 150 -30 28 -78 32 -111 8 -20 -14 -26 -12 -23 9 1 6 -77 11
-80 5z"/>
<path d="M3868 2843 c-4 -7 -3 -103 1 -171 2 -37 53 -82 87 -78 16 2 34 4 41
5 6 0 19 8 27 17 15 14 16 14 16 -4 0 -15 6 -19 33 -17 17 2 35 3 38 4 3 0 6
57 6 126 l0 125 -39 0 -38 0 0 -76 c0 -87 -11 -114 -45 -114 -43 0 -55 23 -52
108 l2 77 -37 3 c-20 2 -38 -1 -40 -5z"/>
<path d="M4178 2838 c-3 -7 -4 -92 -4 -188 l1 -175 38 -2 37 -2 0 75 0 75 31
-17 c97 -50 195 72 144 180 -29 60 -104 85 -153 50 -20 -14 -22 -14 -22 0 0
20 -66 22 -72 4z m174 -82 c24 -35 -6 -96 -47 -96 -28 0 -43 17 -51 57 -5 25
-1 34 21 51 22 18 31 20 49 10 11 -6 24 -16 28 -22z"/>
<path d="M4480 2838 c-1 -21 -1 -219 -1 -294 l1 -71 38 1 37 1 0 76 0 77 24
-19 c29 -23 49 -24 100 -3 78 31 91 157 23 217 -30 28 -98 34 -122 12 -18 -16
-20 -16 -26 -1 -7 19 -74 23 -74 4z m180 -90 c13 -25 13 -31 0 -55 -29 -52
-100 -35 -100 23 0 14 5 34 11 45 16 30 69 22 89 -13z"/>
<path d="M4832 2833 c-40 -20 -64 -63 -64 -116 2 -127 176 -173 242 -64 70
114 -55 241 -178 180z m114 -88 c15 -58 -31 -106 -75 -78 -20 13 -30 62 -19
86 22 43 82 38 94 -8z"/>
<path d="M5070 2722 l0 -128 33 2 c17 1 35 2 39 3 4 0 7 32 6 71 -1 76 10 100
48 100 21 0 24 5 24 40 0 46 -14 51 -48 20 l-22 -21 0 21 c0 17 -6 20 -40 20
l-40 0 0 -128z"/>
</g>
</svg>
